<svg t="1701941984088" class="icon" viewBox="0 0 1024 1024" version="1.1" xmlns="http://www.w3.org/2000/svg" p-id="4771"
    width="200" height="200">
    <path fill="white"
        d="M765.79 190.71H255.04c-45.71 0-82.9 37.19-82.9 82.9v510.74c0 47.46 38.61 86.07 86.07 86.07h507.57c47.46 0 86.07-38.61 86.07-86.07V276.79c0.01-47.47-38.6-86.08-86.06-86.08z m-510.75 55.27h510.75c16.99 0 30.81 13.82 30.81 30.81v165.22c-2.99 0.89-5.96 1.82-8.97 2.68a918.34 918.34 0 0 1-35.49 9.38c-5.28 1.29-10.56 2.55-15.88 3.75-6.72 1.52-13.49 2.93-20.27 4.3-5.27 1.07-10.54 2.14-15.85 3.12-6.94 1.29-13.93 2.45-20.92 3.59-5.25 0.86-10.5 1.74-15.78 2.51-7.19 1.05-14.44 1.96-21.69 2.86-5.16 0.64-10.31 1.34-15.5 1.9-7.61 0.83-15.28 1.47-22.94 2.13-4.91 0.42-9.78 0.92-14.71 1.27-8.52 0.61-17.11 1.01-25.7 1.42-4.13 0.19-8.23 0.49-12.38 0.64-12.77 0.45-25.6 0.7-38.5 0.7-12.9 0-25.73-0.25-38.5-0.7-4.16-0.15-8.28-0.44-12.43-0.64-8.57-0.4-17.14-0.81-25.65-1.41-4.95-0.35-9.85-0.86-14.78-1.28-7.64-0.66-15.28-1.3-22.87-2.13-5.22-0.57-10.38-1.26-15.57-1.91-7.22-0.9-14.45-1.8-21.62-2.84-5.31-0.78-10.57-1.66-15.84-2.52-6.98-1.14-13.95-2.29-20.87-3.58-5.32-0.99-10.61-2.06-15.89-3.13-6.77-1.37-13.53-2.78-20.24-4.3-5.32-1.2-10.61-2.46-15.89-3.75a918.34 918.34 0 0 1-35.49-9.38c-3-0.86-5.97-1.79-8.97-2.68v-168.4c0-15.24 12.39-27.63 27.63-27.63z m541.55 538.38c0 16.99-13.82 30.81-30.81 30.81H258.21c-16.99 0-30.81-13.82-30.81-30.81V499.72c0.42 0.12 0.84 0.21 1.26 0.33 2.07 0.57 4.18 1.06 6.26 1.63 10.03 2.71 20.11 5.31 30.28 7.72 4.14 0.98 8.32 1.84 12.48 2.77 8.19 1.83 16.4 3.62 24.68 5.25 4.79 0.94 9.6 1.8 14.42 2.68 7.77 1.42 15.56 2.77 23.39 4.02 5.07 0.8 10.15 1.56 15.24 2.29 7.73 1.11 15.49 2.13 23.29 3.07 5.13 0.62 10.26 1.24 15.42 1.78 7.98 0.85 16.01 1.57 24.05 2.24 4.98 0.42 9.95 0.87 14.95 1.22 8.79 0.62 17.63 1.06 26.48 1.47 4.27 0.2 8.51 0.47 12.79 0.62 13.14 0.46 26.34 0.72 39.62 0.72 13.27 0 26.47-0.27 39.62-0.72 4.27-0.15 8.5-0.43 12.76-0.62 8.87-0.41 17.72-0.85 26.52-1.47 4.99-0.35 9.94-0.8 14.91-1.22 8.06-0.68 16.1-1.4 24.1-2.25 5.14-0.55 10.26-1.16 15.37-1.78 7.81-0.94 15.59-1.97 23.34-3.08 5.08-0.73 10.14-1.48 15.19-2.28 7.85-1.24 15.65-2.6 23.43-4.02 4.8-0.88 9.6-1.73 14.38-2.67 8.29-1.63 16.51-3.42 24.72-5.25 4.15-0.93 8.32-1.79 12.45-2.77 10.17-2.41 20.25-5.01 30.29-7.72 2.08-0.56 4.18-1.05 6.26-1.62 0.42-0.12 0.84-0.21 1.26-0.33v284.63z"
        p-id="4772"></path>
</svg>